<svg width="36" height="36" viewBox="0 0 36 36" fill="none" xmlns="http://www.w3.org/2000/svg">
<path d="M35.9961 18C35.9961 26.9845 29.4134 34.4313 20.8086 35.7813V23.2031H25.0027L25.8008 18H20.8086V14.6236C20.8086 13.1998 21.5061 11.8125 23.742 11.8125H26.0117V7.38281C26.0117 7.38281 23.9516 7.03125 21.9821 7.03125C17.8709 7.03125 15.1836 9.52312 15.1836 14.0344V18H10.6133V23.2031H15.1836V35.7813C6.57875 34.4313 -0.00390625 26.9845 -0.00390625 18C-0.00390625 8.05922 8.05531 0 17.9961 0C27.9369 0 35.9961 8.05922 35.9961 18Z" fill="#1877F2"/>
<path d="M25.0027 23.2031L25.8008 18H20.8086V14.6235C20.8086 13.2 21.506 11.8125 23.742 11.8125H26.0117V7.38281C26.0117 7.38281 23.9518 7.03125 21.9825 7.03125C17.8709 7.03125 15.1836 9.52313 15.1836 14.0344V18H10.6133V23.2031H15.1836V35.7813C16.1 35.925 17.0393 36 17.9961 36C18.9529 36 19.8921 35.925 20.8086 35.7813V23.2031H25.0027Z" fill="white"/>
</svg>
