<svg width="36" height="36" viewBox="0 0 36 36" fill="none" xmlns="http://www.w3.org/2000/svg">
<g clip-path="url(#clip0_986_2)">
<path d="M7.97836 21.7554L6.72525 26.4335L2.14516 26.5304C0.776391 23.9916 0 21.0869 0 18.0002C0 15.0154 0.725906 12.2006 2.01263 9.72217H2.01361L6.09117 10.4697L7.87739 14.5228C7.50354 15.6127 7.29977 16.7827 7.29977 18.0002C7.29991 19.3215 7.53926 20.5875 7.97836 21.7554Z" fill="#FBBB00"/>
<path d="M35.6853 14.6372C35.892 15.7261 35.9998 16.8506 35.9998 17.9998C35.9998 19.2885 35.8643 20.5456 35.6062 21.7581C34.7299 25.8843 32.4404 29.4872 29.2686 32.0369L29.2676 32.0359L24.1317 31.7738L23.4049 27.2362C25.5094 26.002 27.1542 24.0704 28.0206 21.7581H18.3955V14.6372H35.6853Z" fill="#518EF8"/>
<path d="M29.2681 32.0361L29.2691 32.0371C26.1844 34.5165 22.2659 36 18.0003 36C11.1455 36 5.18575 32.1687 2.14551 26.5303L7.9787 21.7554C9.49879 25.8123 13.4123 28.7002 18.0003 28.7002C19.9724 28.7002 21.8199 28.1671 23.4053 27.2364L29.2681 32.0361Z" fill="#28B446"/>
<path d="M29.4894 4.14394L23.6582 8.91788C22.0174 7.8923 20.0779 7.29984 18.0001 7.29984C13.3082 7.29984 9.32147 10.3203 7.87753 14.5226L2.01368 9.72197H2.0127C5.00843 3.94615 11.0434 0 18.0001 0C22.3675 0 26.372 1.55573 29.4894 4.14394Z" fill="#F14336"/>
</g>
<defs>
<clipPath id="clip0_986_2">
<rect width="36" height="36" fill="white"/>
</clipPath>
</defs>
</svg>
