<svg width="100" height="100" viewBox="0 0 100 100" fill="none" xmlns="http://www.w3.org/2000/svg">
<circle cx="50" cy="50" r="50" fill="#ECFFF9"/>
<path d="M31.113 48.6851C27.1148 48.6851 23.8621 45.4621 23.8621 41.5017C23.8621 37.5408 27.1148 34.3177 31.113 34.3177C35.1109 34.3177 38.3629 37.5403 38.3629 41.5017C38.3629 45.4626 35.1109 48.6851 31.113 48.6851ZM31.113 36.3338C28.2262 36.3338 25.8783 38.6522 25.8783 41.5017C25.8783 44.3507 28.2262 46.669 31.113 46.669C33.999 46.669 36.3468 44.3507 36.3468 41.5017C36.3468 38.6522 33.999 36.3338 31.113 36.3338ZM34.03 68.5747H21.3848C19.932 68.5747 18.75 67.4003 18.75 65.9564V62.659C18.75 55.9088 24.2959 50.4166 31.113 50.4166C33.7942 50.4166 36.3464 51.2533 38.4914 52.836C38.7065 52.9948 38.8498 53.2326 38.8896 53.497C38.9295 53.7614 38.8627 54.0308 38.704 54.246C38.5452 54.461 38.3075 54.6041 38.0432 54.644C37.7789 54.6839 37.5096 54.6172 37.2944 54.4587C35.4982 53.1337 33.361 52.4327 31.113 52.4327C25.4078 52.4327 20.7661 57.0207 20.7661 62.659V65.9564C20.7661 66.2882 21.0437 66.5585 21.3848 66.5585H34.0305C34.5867 66.5585 35.0386 67.0098 35.0386 67.5665C35.0386 68.1227 34.5867 68.5746 34.03 68.5746V68.5747ZM78.6152 67.8118H65.97C65.4138 67.8118 64.9619 67.3604 64.9619 66.8037C64.9619 66.2475 65.4138 65.7956 65.97 65.7956H78.6157C78.9568 65.7956 79.2344 65.526 79.2344 65.1942V61.8968C79.2344 56.2575 74.5927 51.6704 68.8875 51.6704C66.5047 51.6704 64.1784 52.4909 62.3369 53.9814C61.9047 54.3314 61.2703 54.2649 60.9194 53.8323C60.5694 53.3996 60.6353 52.7646 61.0691 52.4142C63.2678 50.6348 66.0444 49.6543 68.8875 49.6543C75.7041 49.6543 81.25 55.1459 81.25 61.8968V65.1942C81.25 66.6374 80.0682 67.8118 78.6152 67.8118ZM68.887 48.187C64.8891 48.187 61.6371 44.9645 61.6371 41.0036C61.6371 37.0426 64.8891 33.8196 68.887 33.8196C72.8852 33.8196 76.1379 37.0422 76.1379 41.0036C76.1379 44.9649 72.8847 48.187 68.887 48.187ZM68.887 35.8357C66.001 35.8357 63.6532 38.1541 63.6532 41.0036C63.6532 43.853 66.001 46.1709 68.887 46.1709C71.7738 46.1709 74.1217 43.853 74.1217 41.0036C74.1217 38.1541 71.7733 35.8357 68.887 35.8357Z" fill="#00AC76"/>
<path d="M63.6832 71.8548H36.3198C34.502 71.8548 33.0234 70.3871 33.0234 68.5825V63.9449C33.0234 54.6764 40.639 47.1361 50.0015 47.1361C59.364 47.1361 66.9796 54.6764 66.9796 63.9449V68.5825C66.9796 70.387 65.501 71.8548 63.6832 71.8548ZM50.0015 49.1527C41.7514 49.1527 35.0396 55.7888 35.0396 63.9453V68.583C35.0396 69.2756 35.6139 69.8392 36.3198 69.8392H63.6827C64.3886 69.8392 64.963 69.2756 64.963 68.583V63.9453C64.9635 55.7888 58.2516 49.1527 50.0015 49.1527ZM49.6511 45.9582C44.5142 45.9582 40.3343 41.8182 40.3343 36.7286C40.3343 31.6396 44.5139 27.5 49.6512 27.5C54.7889 27.5 58.9684 31.64 58.9684 36.7291C58.9684 41.8185 54.7884 45.9582 49.6512 45.9582H49.6511ZM49.6511 29.5161C45.6256 29.5161 42.3504 32.752 42.3504 36.7291C42.3504 40.7068 45.6256 43.9425 49.6511 43.9425C53.6769 43.9425 56.9521 40.7067 56.9521 36.7291C56.9521 32.752 53.6769 29.5161 49.6512 29.5161H49.6511Z" fill="#00AC76"/>
</svg>
