<svg width="36" height="36" viewBox="0 0 36 36" fill="none" xmlns="http://www.w3.org/2000/svg">
<path d="M35.996 18.1084C35.996 8.22605 27.9848 0.214844 18.1025 0.214844C8.22018 0.214844 0.208984 8.22605 0.208984 18.1084C0.208984 27.9907 8.22018 36.0019 18.1025 36.0019C27.9848 36.0019 35.996 27.9907 35.996 18.1084Z" fill="url(#paint0_linear_749_799)"/>
<path d="M31.5702 6.33443C28.9615 11.1233 25.2722 16.0629 20.6623 20.6728C16.0523 25.2827 11.1128 28.965 6.33096 31.5737C6.03116 31.3132 5.74 31.0416 5.45747 30.7591C3.74971 29.1083 2.38769 27.1341 1.45082 24.9515C0.513949 22.769 0.0209788 20.4217 0.000655131 18.0466C-0.0196685 15.6716 0.433061 13.3162 1.33244 11.1179C2.23183 8.91962 3.55987 6.92238 5.23912 5.24266C6.91838 3.56293 8.91525 2.23433 11.1133 1.33434C13.3113 0.434339 15.6666 -0.0190475 18.0416 0.000613082C20.4167 0.0202737 22.7641 0.512588 24.9469 1.44885C27.1298 2.38511 29.1044 3.74658 30.7556 5.45388C31.0381 5.73641 31.3097 6.02992 31.5702 6.33443Z" fill="white" fill-opacity="0.0627451"/>
<path d="M22.3411 8.6875H13.8652C12.4915 8.6875 11.174 9.23322 10.2026 10.2046C9.23126 11.176 8.68555 12.4935 8.68555 13.8672V22.3431C8.68555 23.7168 9.23126 25.0343 10.2026 26.0057C11.174 26.9771 12.4915 27.5228 13.8652 27.5228H22.3411C23.7149 27.5228 25.0323 26.9771 26.0037 26.0057C26.9751 25.0343 27.5208 23.7168 27.5208 22.3431V13.8672C27.5208 12.4935 26.9751 11.176 26.0037 10.2046C25.0323 9.23322 23.7149 8.6875 22.3411 8.6875ZM25.8727 21.5991C25.8727 22.733 25.4223 23.8206 24.6204 24.6224C23.8186 25.4242 22.7311 25.8747 21.5971 25.8747H14.6092C13.4753 25.8747 12.3878 25.4242 11.5859 24.6224C10.7841 23.8206 10.3336 22.733 10.3336 21.5991V14.6112C10.3336 13.4772 10.7841 12.3897 11.5859 11.5879C12.3878 10.7861 13.4753 10.3356 14.6092 10.3356H21.5971C22.7311 10.3356 23.8186 10.7861 24.6204 11.5879C25.4223 12.3897 25.8727 13.4772 25.8727 14.6112V21.5991Z" fill="white"/>
<path d="M21.5382 14.7074L21.4935 14.6627L21.4558 14.625C20.5656 13.7379 19.3599 13.24 18.1031 13.2406C17.4685 13.2449 16.8409 13.3742 16.2562 13.6212C15.6716 13.8681 15.1413 14.2278 14.6957 14.6798C14.2501 15.1317 13.8979 15.667 13.6593 16.2551C13.4206 16.8432 13.3002 17.4725 13.3048 18.1072C13.3039 19.3952 13.8116 20.6314 14.7175 21.547C15.1612 21.9961 15.69 22.3523 16.2729 22.5949C16.8558 22.8374 17.4812 22.9614 18.1125 22.9596C19.0596 22.9398 19.9803 22.6447 20.7626 22.1106C21.5448 21.5764 22.1547 20.8261 22.5179 19.9512C22.8811 19.0764 22.9818 18.1148 22.8079 17.1836C22.6339 16.2525 22.1927 15.3921 21.5382 14.7074ZM18.1031 21.2998C17.4698 21.3086 16.8482 21.129 16.3174 20.7836C15.7865 20.4382 15.3704 19.9428 15.1218 19.3602C14.8733 18.7777 14.8037 18.1344 14.9218 17.5122C15.0399 16.89 15.3403 16.317 15.785 15.866C16.2297 15.415 16.7984 15.1065 17.4189 14.9796C18.0394 14.8528 18.6836 14.9133 19.2696 15.1536C19.8555 15.3938 20.3568 15.803 20.7096 16.3289C21.0625 16.8549 21.2509 17.4739 21.251 18.1072C21.2541 18.5235 21.1751 18.9364 21.0185 19.3223C20.862 19.7081 20.6309 20.0593 20.3386 20.3558C20.0463 20.6523 19.6984 20.8882 19.3148 21.0502C18.9312 21.2122 18.5195 21.297 18.1031 21.2998ZM24.3258 13.0169C24.3271 13.168 24.2985 13.3179 24.2417 13.4579C24.185 13.5979 24.1012 13.7254 23.9951 13.833C23.8891 13.9406 23.7628 14.0262 23.6236 14.0849C23.4844 14.1437 23.335 14.1744 23.1839 14.1753C23.0341 14.1752 22.8858 14.1454 22.7476 14.0877C22.6094 14.0299 22.484 13.9452 22.3787 13.8386C22.2192 13.6768 22.1107 13.4717 22.0667 13.2488C22.0226 13.0259 22.045 12.7949 22.131 12.5846C22.217 12.3743 22.3628 12.1938 22.5504 12.0656C22.738 11.9374 22.9591 11.867 23.1863 11.8633C23.4522 11.8632 23.7097 11.9566 23.9138 12.127L23.9373 12.1505C23.9753 12.1814 24.01 12.2161 24.0409 12.2541L24.0668 12.2824C24.2354 12.49 24.3269 12.7495 24.3258 13.0169Z" fill="white"/>
<defs>
<linearGradient id="paint0_linear_749_799" x1="5.4499" y1="5.45576" x2="30.7551" y2="30.761" gradientUnits="userSpaceOnUse">
<stop stop-color="#FAE100"/>
<stop offset="0.15" stop-color="#FCB720"/>
<stop offset="0.3" stop-color="#FF7950"/>
<stop offset="0.5" stop-color="#FF1C74"/>
<stop offset="1" stop-color="#6C1CD1"/>
</linearGradient>
</defs>
</svg>
