<svg width="36" height="36" viewBox="0 0 36 36" fill="none" xmlns="http://www.w3.org/2000/svg">
<path d="M17.9961 36C27.9372 36 35.9961 27.9411 35.9961 18C35.9961 8.05888 27.9372 0 17.9961 0C8.05497 0 -0.00390625 8.05888 -0.00390625 18C-0.00390625 27.9411 8.05497 36 17.9961 36Z" fill="#007AB9"/>
<path d="M28.7512 19.4486V26.8696H24.4487V19.946C24.4487 18.2075 23.8275 17.0203 22.2697 17.0203C21.0809 17.0203 20.3747 17.8196 20.0628 18.5935C19.9495 18.8701 19.9203 19.2542 19.9203 19.6421V26.8693H15.6175C15.6175 26.8693 15.6753 15.1429 15.6175 13.9291H19.9207V15.7628C19.912 15.7773 19.8998 15.7914 19.8921 15.8052H19.9207V15.7628C20.4924 14.883 21.5122 13.6252 23.7983 13.6252C26.629 13.6252 28.7512 15.4747 28.7512 19.4486ZM11.1164 7.69141C9.64456 7.69141 8.68164 8.65754 8.68164 9.92689C8.68164 11.1693 9.61665 12.1633 11.0599 12.1633H11.0878C12.5885 12.1633 13.5216 11.1693 13.5216 9.92689C13.493 8.65754 12.5885 7.69141 11.1164 7.69141ZM8.93737 26.8696H13.2386V13.9291H8.93737V26.8696Z" fill="#F1F2F2"/>
</svg>
