<svg width="12" height="16" viewBox="0 0 12 16" fill="none" xmlns="http://www.w3.org/2000/svg">
<path d="M5.99999 0C4.40934 0.00211663 2.88445 0.634937 1.75969 1.7597C0.634936 2.88445 0.00211663 4.40935 0 5.99999C0 10.3075 5.58999 15.7025 5.82749 15.93C5.87368 15.9749 5.93557 16 5.99999 16C6.06441 16 6.12629 15.9749 6.17249 15.93C6.40999 15.7025 12 10.3075 12 5.99999C11.9979 4.40935 11.365 2.88445 10.2403 1.7597C9.11552 0.634937 7.59063 0.00211663 5.99999 0ZM5.99999 8.74999C5.45609 8.74999 4.92441 8.58871 4.47217 8.28653C4.01994 7.98436 3.66746 7.55487 3.45932 7.05237C3.25118 6.54988 3.19672 5.99694 3.30283 5.4635C3.40894 4.93005 3.67085 4.44005 4.05545 4.05545C4.44004 3.67086 4.93004 3.40895 5.46349 3.30284C5.99694 3.19673 6.54987 3.25119 7.05236 3.45933C7.55486 3.66747 7.98435 4.01994 8.28652 4.47218C8.5887 4.92441 8.74998 5.4561 8.74998 5.99999C8.74952 6.7292 8.45964 7.4284 7.94402 7.94402C7.42839 8.45965 6.72919 8.74953 5.99999 8.74999Z" fill="black"/>
</svg>
