<svg width="420" height="100" viewBox="0 0 420 100" fill="none" xmlns="http://www.w3.org/2000/svg">
<g filter="url(#filter0_d_749_814)">
<path d="M99.0284 38.7707C83.7644 32.722 68.5721 36.0396 60.7668 39.3343C59.2528 39.9734 58.426 41.5831 58.7398 43.1978C61.2586 56.1589 68.6927 63.7117 72.3118 65.9559C74.1109 67.8263 79.0005 69.4485 81.2208 70.0258C82.1898 71.4113 82.9512 71.1804 83.2099 70.8917C83.3484 70.7532 83.556 69.8526 83.6425 69.4197C84.3347 68.0341 88.025 65.9559 89.7836 65.09C97.6984 58.3813 100.737 48.8723 101.559 42.992C101.815 41.1636 100.743 39.4502 99.0284 38.7707Z" fill="#FFCA08"/>
<path d="M89.784 65.0902C97.4966 58.5522 100.58 49.3547 101.492 43.4481C101.808 41.3992 100.462 39.5459 98.4892 38.9126L90.6012 36.3789C93.7426 50.8597 91.4798 58.3458 81.7852 70.8262C82.1163 71.0061 82.8643 71.271 83.2103 70.8919C83.3487 70.7534 83.5564 69.8528 83.6429 69.4198C84.3343 68.0343 88.0254 65.9561 89.784 65.0902Z" fill="#D9B601"/>
<path d="M73.3159 55.1214C67.2407 50.2984 66.6361 41.1348 66.7995 37.5176C64.4477 37.5176 61.9657 39.3664 61.3125 39.9291C61.9004 50.5396 70.213 56.4075 74.2958 58.0152C74.6878 56.6647 73.8058 55.5233 73.3159 55.1214Z" fill="#FAE151"/>
</g>
<g filter="url(#filter1_d_749_814)">
<path d="M55.3599 28.2015C54.3219 32.6351 56.196 35.4753 57.2628 36.3413C76.4996 28.0283 95.4364 32.127 102.5 35.2155C103.469 33.2759 103.999 30.655 104.144 29.587C104.282 28.9635 103.74 27.884 103.452 27.4222C103.313 26.9372 101.953 25.8346 101.29 25.3439C95.961 21.6031 86.6715 20.206 82.6925 19.9751C81.309 18.0354 82.1159 15.8186 82.6925 14.9527V14.1733H75.1675C73.7144 16.8058 73.6971 19.7153 73.87 20.8411C62.937 22.088 56.9745 26.2676 55.3599 28.2015Z" fill="url(#paint0_linear_749_814)"/>
<path d="M89.748 31.824C91.1134 29.5466 90.3175 23.7579 89.748 21.0059C97.1649 22.4355 101.418 25.1509 102.545 26.415C103.354 27.3223 104.062 28.5027 104.251 29.2618C104.479 29.9451 103.208 33.5322 102.545 35.2403C99.9854 33.8169 92.876 32.3934 89.748 31.824Z" fill="#806104"/>
</g>
<path d="M50.3233 26.7656L46.7333 30.1705C44.151 27.6274 41.3168 25.7042 38.2306 24.4011C35.1655 23.077 32.1738 22.4149 29.2556 22.4149C25.6236 22.4149 22.1596 23.3082 18.8634 25.0947C15.5883 26.8812 13.048 29.3088 11.2425 32.3774C9.43702 35.425 8.53426 38.6512 8.53426 42.0561C8.53426 45.5451 9.46848 48.866 11.337 52.0186C13.2055 55.1503 15.7878 57.6199 19.0839 59.4275C22.3799 61.2139 25.991 62.1072 29.9169 62.1072C34.6826 62.1072 38.7135 60.762 42.0096 58.0718C45.3057 55.3815 47.2582 51.8925 47.867 47.6048H33.0976V43.1281H53.0631C53.0211 50.2952 50.8902 55.991 46.6703 60.2156C42.4714 64.4192 36.845 66.5209 29.791 66.5209C21.2253 66.5209 14.4441 63.5995 9.44748 57.7565C5.60554 53.2586 3.68457 48.0567 3.68457 42.1507C3.68457 37.758 4.78677 33.67 6.99117 29.8868C9.19556 26.1036 12.2188 23.1505 16.0607 21.0278C19.9027 18.8839 24.2485 17.812 29.0981 17.812C33.024 17.812 36.719 18.5266 40.1831 19.9559C43.6471 21.3641 47.0273 23.634 50.3233 26.7656Z" fill="#231F20"/>
<path d="M114.963 18.9785H119.624V60.8777H137.416V65.3545H114.963V18.9785ZM142.819 65.3545V18.9785H152.424C159.352 18.9785 164.38 19.5355 167.509 20.6495C172.001 22.2258 175.507 24.9581 178.027 28.8465C180.566 32.7347 181.836 37.3692 181.836 42.7498C181.836 47.3947 180.829 51.4827 178.814 55.0137C176.819 58.5447 174.216 61.151 171.004 62.8324C167.813 64.5138 163.331 65.3545 157.557 65.3545H142.819ZM147.259 60.9723H152.613C159.016 60.9723 163.456 60.5729 165.934 59.7743C169.419 58.6393 172.158 56.6006 174.153 53.658C176.148 50.6945 177.145 47.0795 177.145 42.8128C177.145 38.336 176.063 34.5108 173.901 31.3371C171.738 28.1634 168.726 25.988 164.863 24.811C161.966 23.9283 157.189 23.4869 150.535 23.4869H147.259V60.9723ZM188.909 18.9785H215.455V23.5499H193.537V38.0523H215.267V42.5921H193.537V60.7831H215.267V65.3545H188.909V18.9785ZM221.551 65.3545V18.9785H222.559L253.358 54.4777V18.9785H257.924V65.3545H256.884L226.338 30.2967V65.3545H221.551Z" fill="#231F20"/>
<path d="M308.751 17.812C315.301 17.812 320.927 20.1871 325.63 24.9371C330.354 29.6871 332.715 35.4775 332.715 42.3083C332.715 49.0761 330.385 54.8035 325.724 59.4904C321.085 64.1774 315.448 66.5209 308.814 66.5209C301.865 66.5209 296.091 64.1144 291.493 59.3013C286.896 54.4882 284.597 48.7714 284.597 42.1507C284.597 37.716 285.667 33.6385 287.809 29.9183C289.95 26.1982 292.889 23.2556 296.626 21.0908C300.384 18.9049 304.426 17.812 308.751 17.812ZM308.656 26.4504C304.373 26.4504 300.772 27.9426 297.854 30.9271C294.936 33.9117 293.477 37.7054 293.477 42.3083C293.477 47.4367 295.314 51.4932 298.988 54.4777C301.843 56.8107 305.118 57.9772 308.814 57.9772C312.992 57.9772 316.55 56.4639 319.489 53.4373C322.428 50.4108 323.897 46.68 323.897 42.2453C323.897 37.8315 322.418 34.1008 319.457 31.0533C316.497 27.9847 312.897 26.4504 308.656 26.4504ZM353.202 18.9785H362.146L379.97 65.3545H370.806L367.185 55.8019H348.29L344.51 65.3545H335.347L353.202 18.9785ZM357.737 31.274L351.565 47.195H363.878L357.737 31.274ZM384.963 18.9785H393.875V34.9311L406.441 18.9785H417.053L400.867 39.6601L418.628 65.3545H408.173L393.875 44.7674V65.3545H384.963V18.9785Z" fill="#231F20"/>
<path d="M24.0182 85.0425C24.0182 85.7149 23.864 86.3323 23.5557 86.8945C23.2474 87.4457 22.7739 87.8921 22.1352 88.2338C21.4966 88.5756 20.7038 88.7464 19.7568 88.7464H18.006V92.9134H15.1816V81.3055H19.7568C20.6818 81.3055 21.4636 81.4653 22.1022 81.785C22.7409 82.1047 23.2198 82.5456 23.5392 83.1079C23.8585 83.6701 24.0182 84.3149 24.0182 85.0425ZM19.5421 86.4976C20.0816 86.4976 20.4836 86.3709 20.7478 86.1173C21.0121 85.8638 21.1442 85.5055 21.1442 85.0425C21.1442 84.5795 21.0121 84.2212 20.7478 83.9677C20.4836 83.7142 20.0816 83.5874 19.5421 83.5874H18.006V86.4976H19.5421ZM41.4603 90.863H37.1329L36.4392 92.9134H33.4827L37.678 81.3055H40.9483L45.1436 92.9134H42.1541L41.4603 90.863ZM40.7336 88.6803L39.2966 84.4307L37.8762 88.6803H40.7336ZM65.547 92.9134H62.7226L57.9987 85.7535V92.9134H55.1744V81.3055H57.9987L62.7226 88.4984V81.3055H65.547V92.9134ZM75.8692 87.0929C75.8692 85.9464 76.117 84.9268 76.6125 84.0338C77.108 83.1299 77.7962 82.4299 78.6771 81.9338C79.5691 81.4268 80.5766 81.1732 81.6997 81.1732C83.0761 81.1732 84.2543 81.537 85.2343 82.2645C86.2143 82.9921 86.8695 83.9842 87.1998 85.2409H84.0947C83.8634 84.7559 83.5331 84.3866 83.1037 84.1331C82.6852 83.8795 82.2062 83.7527 81.6667 83.7527C80.7968 83.7527 80.0921 84.0559 79.5525 84.6622C79.013 85.2685 78.7432 86.0787 78.7432 87.0929C78.7432 88.1071 79.013 88.9173 79.5525 89.5236C80.0921 90.1299 80.7968 90.4331 81.6667 90.4331C82.2062 90.4331 82.6852 90.3063 83.1037 90.0527C83.5331 89.7992 83.8634 89.4299 84.0947 88.9449H87.1998C86.8695 90.2016 86.2143 91.1937 85.2343 91.9212C84.2543 92.6378 83.0761 92.996 81.6997 92.996C80.5766 92.996 79.5691 92.748 78.6771 92.252C77.7962 91.7449 77.108 91.0449 76.6125 90.1519C76.117 89.259 75.8692 88.2394 75.8692 87.0929ZM104.901 90.863H100.574L99.8801 92.9134H96.9236L101.119 81.3055H104.389L108.584 92.9134H105.595L104.901 90.863ZM104.174 88.6803L102.737 84.4307L101.317 88.6803H104.174ZM125.337 92.9134L121.439 87.7874V92.9134H118.615V81.3055H121.439V86.3984L125.304 81.3055H128.624L124.132 86.9937L128.789 92.9134H125.337ZM141.71 83.5708V85.9189H145.493V88.1016H141.71V90.648H145.988V92.9134H138.886V81.3055H145.988V83.5708H141.71ZM178.872 81.3055V92.9134H176.048V88.1346H171.654V92.9134H168.83V81.3055H171.654V85.8527H176.048V81.3055H178.872ZM195.148 93.0291C194.058 93.0291 193.056 92.7756 192.142 92.2685C191.24 91.7614 190.518 91.0559 189.979 90.1519C189.45 89.237 189.186 88.2118 189.186 87.0764C189.186 85.9409 189.45 84.9212 189.979 84.0173C190.518 83.1134 191.24 82.4079 192.142 81.9008C193.056 81.3937 194.058 81.1401 195.148 81.1401C196.239 81.1401 197.235 81.3937 198.138 81.9008C199.052 82.4079 199.768 83.1134 200.285 84.0173C200.814 84.9212 201.078 85.9409 201.078 87.0764C201.078 88.2118 200.814 89.237 200.285 90.1519C199.757 91.0559 199.041 91.7614 198.138 92.2685C197.235 92.7756 196.239 93.0291 195.148 93.0291ZM195.148 90.4496C196.073 90.4496 196.811 90.1409 197.362 89.5236C197.923 88.9063 198.204 88.0905 198.204 87.0764C198.204 86.0512 197.923 85.2354 197.362 84.6291C196.811 84.0118 196.073 83.7031 195.148 83.7031C194.213 83.7031 193.464 84.0063 192.902 84.6126C192.352 85.2189 192.076 86.0401 192.076 87.0764C192.076 88.1016 192.352 88.9228 192.902 89.5401C193.464 90.1464 194.213 90.4496 195.148 90.4496ZM214.178 81.3055V88.2504C214.178 88.9449 214.349 89.4795 214.69 89.8543C215.032 90.2291 215.533 90.4165 216.193 90.4165C216.854 90.4165 217.361 90.2291 217.713 89.8543C218.065 89.4795 218.241 88.9449 218.241 88.2504V81.3055H221.066V88.2338C221.066 89.2701 220.846 90.1464 220.405 90.863C219.965 91.5795 219.37 92.1197 218.621 92.4834C217.884 92.8472 217.058 93.0291 216.144 93.0291C215.23 93.0291 214.41 92.8527 213.683 92.5C212.967 92.1362 212.4 91.596 211.982 90.8795C211.563 90.152 211.354 89.2701 211.354 88.2338V81.3055H214.178ZM235.998 93.0291C235.15 93.0291 234.39 92.8913 233.718 92.6157C233.047 92.3401 232.507 91.9323 232.1 91.3921C231.703 90.852 231.494 90.2016 231.472 89.4409H234.478C234.522 89.8708 234.671 90.2016 234.924 90.4331C235.177 90.6535 235.508 90.7638 235.915 90.7638C236.334 90.7638 236.664 90.6701 236.906 90.4827C237.148 90.2842 237.27 90.0142 237.27 89.6724C237.27 89.3858 237.171 89.1488 236.972 88.9614C236.785 88.774 236.548 88.6197 236.262 88.4984C235.987 88.3771 235.59 88.2393 235.073 88.085C234.324 87.8535 233.713 87.622 233.24 87.3905C232.766 87.159 232.359 86.8173 232.017 86.3653C231.676 85.9134 231.505 85.3236 231.505 84.596C231.505 83.5157 231.896 82.6724 232.678 82.0661C233.46 81.4488 234.478 81.1401 235.734 81.1401C237.011 81.1401 238.04 81.4488 238.822 82.0661C239.604 82.6724 240.022 83.5212 240.077 84.6126H237.022C237 84.2378 236.862 83.9457 236.609 83.7362C236.356 83.5157 236.031 83.4055 235.634 83.4055C235.293 83.4055 235.018 83.4992 234.809 83.6866C234.599 83.863 234.495 84.122 234.495 84.4638C234.495 84.8386 234.671 85.1307 235.023 85.3401C235.376 85.5496 235.926 85.7756 236.675 86.0181C237.424 86.2716 238.029 86.5142 238.492 86.7457C238.965 86.9771 239.373 87.3134 239.714 87.7543C240.055 88.1953 240.226 88.763 240.226 89.4575C240.226 90.1189 240.055 90.7197 239.714 91.2598C239.384 91.8 238.899 92.2299 238.261 92.5496C237.622 92.8693 236.868 93.0291 235.998 93.0291ZM253.543 83.5708V85.9189H257.325V88.1016H253.543V90.648H257.82V92.9134H250.718V81.3055H257.82V83.5708H253.543Z" fill="#231F20"/>
<defs>
<filter id="filter0_d_749_814" x="49.6738" y="26.4067" width="70.9229" height="63.7041" filterUnits="userSpaceOnUse" color-interpolation-filters="sRGB">
<feFlood flood-opacity="0" result="BackgroundImageFix"/>
<feColorMatrix in="SourceAlpha" type="matrix" values="0 0 0 0 0 0 0 0 0 0 0 0 0 0 0 0 0 0 127 0" result="hardAlpha"/>
<feOffset dx="5" dy="5"/>
<feGaussianBlur stdDeviation="7"/>
<feComposite in2="hardAlpha" operator="out"/>
<feColorMatrix type="matrix" values="0 0 0 0 0.419608 0 0 0 0 0.403922 0 0 0 0 0.411765 0 0 0 1 0"/>
<feBlend mode="normal" in2="BackgroundImageFix" result="effect1_dropShadow_749_814"/>
<feBlend mode="normal" in="SourceGraphic" in2="effect1_dropShadow_749_814" result="shape"/>
</filter>
<filter id="filter1_d_749_814" x="54.0566" y="8.17334" width="69.2217" height="42.168" filterUnits="userSpaceOnUse" color-interpolation-filters="sRGB">
<feFlood flood-opacity="0" result="BackgroundImageFix"/>
<feColorMatrix in="SourceAlpha" type="matrix" values="0 0 0 0 0 0 0 0 0 0 0 0 0 0 0 0 0 0 127 0" result="hardAlpha"/>
<feOffset dx="9" dy="4"/>
<feGaussianBlur stdDeviation="5"/>
<feComposite in2="hardAlpha" operator="out"/>
<feColorMatrix type="matrix" values="0 0 0 0 0.584314 0 0 0 0 0.580392 0 0 0 0 0.552941 0 0 0 1 0"/>
<feBlend mode="normal" in2="BackgroundImageFix" result="effect1_dropShadow_749_814"/>
<feBlend mode="normal" in="SourceGraphic" in2="effect1_dropShadow_749_814" result="shape"/>
</filter>
<linearGradient id="paint0_linear_749_814" x1="78.3749" y1="15.3121" x2="79.5151" y2="30.4004" gradientUnits="userSpaceOnUse">
<stop stop-color="#A78104"/>
<stop offset="1" stop-color="#AA810D"/>
</linearGradient>
</defs>
</svg>
