<svg width="64" height="51" viewBox="0 0 64 51" fill="none" xmlns="http://www.w3.org/2000/svg">
<path d="M63.167 3.45831C63.167 2.62951 62.8378 1.83466 62.2517 1.2486C61.6656 0.662554 60.8708 0.333313 60.042 0.333313H19.417C18.5882 0.333313 17.7933 0.662554 17.2073 1.2486C16.6212 1.83466 16.292 2.62951 16.292 3.45831C16.292 4.28711 16.6212 5.08197 17.2073 5.66802C17.7933 6.25407 18.5882 6.58331 19.417 6.58331H60.042C60.8708 6.58331 61.6656 6.25407 62.2517 5.66802C62.8378 5.08197 63.167 4.28711 63.167 3.45831ZM63.167 25.3333C63.167 24.5045 62.8378 23.7097 62.2517 23.1236C61.6656 22.5376 60.8708 22.2083 60.042 22.2083H3.79199C2.96319 22.2083 2.16833 22.5376 1.58228 23.1236C0.99623 23.7097 0.666992 24.5045 0.666992 25.3333C0.666992 26.1621 0.99623 26.957 1.58228 27.543C2.16833 28.1291 2.96319 28.4583 3.79199 28.4583H60.042C60.8708 28.4583 61.6656 28.1291 62.2517 27.543C62.8378 26.957 63.167 26.1621 63.167 25.3333ZM60.042 44.0833C60.8708 44.0833 61.6656 44.4126 62.2517 44.9986C62.8378 45.5847 63.167 46.3795 63.167 47.2083C63.167 48.0371 62.8378 48.832 62.2517 49.418C61.6656 50.0041 60.8708 50.3333 60.042 50.3333H35.042C34.2132 50.3333 33.4183 50.0041 32.8323 49.418C32.2462 48.832 31.917 48.0371 31.917 47.2083C31.917 46.3795 32.2462 45.5847 32.8323 44.9986C33.4183 44.4126 34.2132 44.0833 35.042 44.0833H60.042Z" fill="#191919"/>
</svg>
