<svg width="100" height="100" viewBox="0 0 100 100" fill="none" xmlns="http://www.w3.org/2000/svg">
<circle cx="50" cy="50" r="50" fill="#ECFFF9"/>
<path d="M60 41.25H65C65 34.1575 58.1125 30.9225 52.5 30.1775V25H47.5V30.1775C41.8875 30.9225 35 34.1575 35 41.25C35 48.015 41.665 51.5325 47.5 52.325V64.75C43.88 64.1225 40 62.19 40 58.75H35C35 65.2225 41.0625 69.0475 47.5 69.84V75H52.5V69.825C58.1125 69.08 65 65.8425 65 58.75C65 51.6575 58.1125 48.4225 52.5 47.6775V35.25C55.825 35.8475 60 37.6025 60 41.25ZM40 41.25C40 37.6025 44.175 35.8475 47.5 35.25V47.2475C44.0725 46.615 40 44.7425 40 41.25ZM60 58.75C60 62.3975 55.825 64.1525 52.5 64.75V52.75C55.825 53.3475 60 55.1025 60 58.75Z" fill="#00AC76"/>
</svg>
