<svg width="76" height="74" viewBox="0 0 76 74" fill="none" xmlns="http://www.w3.org/2000/svg">
<path d="M2 36.1025C2 22.5647 2 15.7959 6.20564 11.5902C10.4113 7.38452 17.1802 7.38452 30.7179 7.38452H45.0769C58.6146 7.38452 65.3837 7.38452 69.5891 11.5902C73.7949 15.7959 73.7949 22.5647 73.7949 36.1025V43.2821C73.7949 56.8197 73.7949 63.5889 69.5891 67.7943C65.3837 72.0001 58.6146 72.0001 45.0769 72.0001H30.7179C17.1802 72.0001 10.4113 72.0001 6.20564 67.7943C2 63.5889 2 56.8197 2 43.2821V36.1025Z" stroke="#1C274C" stroke-width="3"/>
<path opacity="0.5" d="M19.9473 7.38463V2" stroke="#1C274C" stroke-width="3" stroke-linecap="round"/>
<path opacity="0.5" d="M55.8457 7.38463V2" stroke="#1C274C" stroke-width="3" stroke-linecap="round"/>
<path opacity="0.5" d="M3.79492 25.3337H72" stroke="#1C274C" stroke-width="3" stroke-linecap="round"/>
<path d="M59.4353 54.0512C59.4353 56.0338 57.8282 57.6409 55.8456 57.6409C53.863 57.6409 52.2559 56.0338 52.2559 54.0512C52.2559 52.0686 53.863 50.4614 55.8456 50.4614C57.8282 50.4614 59.4353 52.0686 59.4353 54.0512Z" fill="#1C274C"/>
<path d="M59.4353 39.6923C59.4353 41.6749 57.8282 43.282 55.8456 43.282C53.863 43.282 52.2559 41.6749 52.2559 39.6923C52.2559 37.7097 53.863 36.1025 55.8456 36.1025C57.8282 36.1025 59.4353 37.7097 59.4353 39.6923Z" fill="#1C274C"/>
<path d="M41.4881 54.0512C41.4881 56.0338 39.881 57.6409 37.8983 57.6409C35.9157 57.6409 34.3086 56.0338 34.3086 54.0512C34.3086 52.0686 35.9157 50.4614 37.8983 50.4614C39.881 50.4614 41.4881 52.0686 41.4881 54.0512Z" fill="#1C274C"/>
<path d="M41.4881 39.6923C41.4881 41.6749 39.881 43.282 37.8983 43.282C35.9157 43.282 34.3086 41.6749 34.3086 39.6923C34.3086 37.7097 35.9157 36.1025 37.8983 36.1025C39.881 36.1025 41.4881 37.7097 41.4881 39.6923Z" fill="#1C274C"/>
<path d="M23.5389 54.0512C23.5389 56.0338 21.9317 57.6409 19.9491 57.6409C17.9666 57.6409 16.3594 56.0338 16.3594 54.0512C16.3594 52.0686 17.9666 50.4614 19.9491 50.4614C21.9317 50.4614 23.5389 52.0686 23.5389 54.0512Z" fill="#1C274C"/>
<path d="M23.5389 39.6923C23.5389 41.6749 21.9317 43.282 19.9491 43.282C17.9666 43.282 16.3594 41.6749 16.3594 39.6923C16.3594 37.7097 17.9666 36.1025 19.9491 36.1025C21.9317 36.1025 23.5389 37.7097 23.5389 39.6923Z" fill="#1C274C"/>
</svg>
