<svg width="100" height="100" viewBox="0 0 100 100" fill="none" xmlns="http://www.w3.org/2000/svg">
<circle cx="50" cy="50" r="50" fill="#ECFFF9"/>
<path d="M50.0002 25C36.2151 25 25 36.2146 25 49.9993C25 63.7849 36.2151 75 50.0002 75C63.7851 75 75 63.7846 75 49.9993C75 36.2146 63.7851 25 50.0002 25ZM50.0002 71.4163C38.1912 71.4163 28.5838 61.8086 28.5838 49.9993C28.5838 38.1907 38.1912 28.5837 50.0002 28.5837C61.809 28.5837 71.4162 38.1907 71.4162 49.9993C71.4162 61.8086 61.809 71.4163 50.0002 71.4163Z" fill="#00AC76"/>
<path d="M62.8539 49.5809H51.1053V36.7388C51.1053 36.2635 50.9165 35.8078 50.5804 35.4717C50.2444 35.1357 49.7886 34.9469 49.3134 34.9469C48.8381 34.9469 48.3824 35.1357 48.0463 35.4717C47.7103 35.8078 47.5215 36.2635 47.5215 36.7388V51.3727C47.5215 51.848 47.7103 52.3037 48.0463 52.6398C48.3824 52.9758 48.8381 53.1646 49.3134 53.1646H62.8539C63.3291 53.1646 63.7849 52.9758 64.1209 52.6398C64.457 52.3037 64.6458 51.848 64.6458 51.3727C64.6458 50.8975 64.457 50.4417 64.1209 50.1057C63.7849 49.7697 63.3291 49.5809 62.8539 49.5809Z" fill="#00AC76"/>
</svg>
